<svg width="511.99999999999994" height="104.6267690527832" viewBox="0 0 370.32432432432427 75.67546397599426"><defs id="SvgjsDefs2503"></defs><g id="SvgjsG2504" featurekey="symbolFeature-0" transform="matrix(0.8408454656600952,0,0,0.8408454656600952,-3.81502071329023,-4.205068555470775)" fill="#9333ea"><path xmlns="http://www.w3.org/2000/svg" d="M86.229,50.001l0.721-0.723c10.115-10.115,10.116-26.574,0-36.69s-26.575-10.116-36.691,0l-0.722,0.721l-0.721-0.721  C38.7,2.472,22.24,2.472,12.124,12.588C2.008,22.704,2.008,39.163,12.125,49.278l0.721,0.723l-0.721,0.721  C2.008,60.838,2.008,77.296,12.124,87.414c10.117,10.115,26.577,10.115,36.692,0l0.721-0.722l0.722,0.722  c10.116,10.115,26.575,10.115,36.691,0c10.116-10.118,10.115-26.576,0-36.692L86.229,50.001z M53.453,15.783  c8.354-8.354,21.947-8.354,30.3,0c8.354,8.354,8.354,21.948,0.001,30.301L59.431,70.407c-1.862,1.863-2.316,4.073-0.109,6.306  l0.831,0.806c4.66,4.66,12.242,4.66,16.902,0s4.66-12.243,0.001-16.903l-0.722-0.722l1.751-1.75l0.722,0.722  c5.627,5.625,5.627,14.78,0,20.405c-5.625,5.625-14.781,5.625-20.406,0c0,0-0.354-0.298-0.833-0.78  c-0.44-0.447-4.823-4.899,0.112-9.835l24.322-24.323c7.389-7.388,7.389-19.409,0-26.798c-7.388-7.387-19.408-7.387-26.796,0.001  l-0.723,0.721l-1.752-1.751L53.453,15.783z M73.86,74.325c-2.899,2.897-7.615,2.897-10.514,0l-0.721-0.722l10.513-10.513l0.722,0.72  C76.758,66.71,76.758,71.425,73.86,74.325z M15.319,15.783c8.354-8.354,21.948-8.354,30.302,0l24.321,24.321l-1.752,1.754  L43.868,17.535c-7.389-7.388-19.408-7.388-26.796,0c-7.389,7.388-7.389,19.409,0,26.797l0.721,0.722l-1.752,1.752l-0.722-0.721  C6.965,37.731,6.965,24.138,15.319,15.783z M62.626,26.398l0.721-0.722c2.898-2.898,7.614-2.898,10.514,0  c2.897,2.898,2.897,7.613,0,10.514l-0.722,0.721L62.626,26.398z M24.337,58.297l-2.319,2.318c-4.661,4.66-4.66,12.243,0,16.903  c4.659,4.66,12.242,4.66,16.902,0l0.722-0.722c3.561-3.559-0.725-7.104-2.787-9.167l-1.343-1.354l-6.383-6.383l1.752-1.75  l8.49,8.489l0.67,0.672c6.242,6.239,1.837,10.76,1.353,11.244l-0.722,0.722c-5.626,5.628-14.78,5.625-20.407,0  c-5.625-5.625-5.625-14.78,0.001-20.407L44.59,34.54l1.751,1.754L34.23,48.403L24.337,58.297z M25.934,63.091l10.513,10.51  l-0.722,0.723c-2.899,2.897-7.614,2.899-10.512,0c-2.898-2.898-2.898-7.615,0-10.513L25.934,63.091z M49.536,39.488l10.512,10.513  L49.536,60.512L39.023,50.001L49.536,39.488z M38.921,22.483c-4.66-4.662-12.243-4.66-16.902,0c-4.66,4.658-4.661,12.242,0,16.902  l0.721,0.722l-1.752,1.751l-0.722-0.721c-5.626-5.627-5.625-14.781,0-20.408c5.627-5.625,14.781-5.626,20.407,0l24.323,24.323  l-1.752,1.752L38.921,22.483z M36.447,26.399L25.934,36.911l-0.721-0.721c-2.899-2.899-2.899-7.615-0.001-10.514  c2.898-2.898,7.614-2.898,10.513,0.002L36.447,26.399z M83.753,84.218c-8.353,8.354-21.946,8.354-30.3,0l-0.909-0.813  c-0.198-0.199-1.873-1.863-3.107-4.434c-1.151,2.43-2.679,4.096-3.094,4.525l-0.722,0.722c-8.354,8.354-21.948,8.354-30.302,0  c-8.354-8.354-8.354-21.947,0-30.303l24.323-24.321l1.752,1.753L17.072,55.669c-7.389,7.389-7.389,19.409,0,26.797  c7.388,7.389,19.408,7.389,26.796,0l0.761-0.762c1.918-1.991,3.366-5.064,3.473-8.229c0-0.093,0.007-0.186,0.009-0.277  c0.022-2.474-0.788-4.981-2.86-7.055c-1.284-1.284-3.86-3.86-3.86-3.86l-0.371-0.395l-6.942-6.941l1.752-1.753l9.693,9.693  l0.813,0.828c1.438,1.439,2.459,2.871,3.161,4.269c0.705-1.348,1.705-2.73,3.102-4.128l0.134-0.148l24.324-24.322  c4.659-4.66,4.659-12.244-0.001-16.904c-4.659-4.66-12.242-4.66-16.902,0l-0.722,0.723l-1.751-1.752l0.721-0.723  c5.625-5.625,14.781-5.625,20.406,0c5.627,5.627,5.627,14.781,0,20.406L54.482,65.46l-0.767,0.77  c-4.868,4.868-2.956,11.839,0.604,15.397l0.886,0.839c7.388,7.389,19.408,7.389,26.796,0c7.389-7.388,7.389-19.408,0-26.797  l-0.722-0.722l1.752-1.753l0.722,0.723C92.107,62.271,92.107,75.863,83.753,84.218z"></path></g><g id="SvgjsG2505" featurekey="nameFeature-0" transform="matrix(1.762556552886963,0,0,1.762556552886963,96.00000021011311,-7.0931437825604675)" fill="#9333ea"><path d="M3.88 20.88 c4.08 1.16 7.04 4.92 7.04 9.36 c0 5.4 -4.36 9.76 -9.76 9.76 l-1.16 0 l0 -28.6 l1.16 0 c2.84 0 5.12 2.28 5.12 5.12 c0 1.84 -0.96 3.44 -2.4 4.36 z M1.16 12.559999999999999 l0 7.92 c2.2 0 3.96 -1.76 3.96 -3.96 s-1.76 -3.96 -3.96 -3.96 z M1.16 38.84 c4.76 0 8.6 -3.88 8.6 -8.6 c0 -4.76 -3.84 -8.6 -8.6 -8.6 l0 17.2 l0 0 z M20.715 12.600000000000001 l-4.6 0 l0 7.88 l4.6 0 l0 1.2 l-4.6 0 l0 17.12 l4.6 0 l0 1.2 l-5.76 0 l0 -28.6 l5.76 0 l0 1.2 z M39.15 40 l-1.12 -4.52 l-10.96 0 l-1.12 4.52 l-1.2 0 l7.08 -28.6 l1.44 0 l7.08 28.6 l-1.2 0 z M27.35 34.28 l10.4 0 l-5.2 -20.88 z M55.305 21.16 c0 3.72 -2.04 6.96 -5.08 8.6 l5.08 10.24 l-1.32 0 l-4.84 -9.76 c-1.04 0.44 -2.2 0.68 -3.4 0.68 l-0.2 0 l0 9.08 l-1.16 0 l0 -28.6 l1.36 0 c5.28 0 9.56 4.36 9.56 9.76 z M45.544999999999995 12.559999999999999 l0 17.2 l0.2 0 c4.64 0 8.4 -3.88 8.4 -8.6 c0 -4.76 -3.76 -8.6 -8.4 -8.6 l-0.2 0 z M87.14 25.68 c0 3.2 -1.08 6.16 -2.88 8.56 l2.88 5.76 l-1.32 0 l-2.36 -4.76 c-2.6 2.88 -6.4 4.76 -10.64 4.76 c-7.88 0 -14.28 -6.44 -14.28 -14.32 s6.4 -14.28 14.28 -14.28 c7.92 0 14.32 6.4 14.32 14.28 z M72.82 38.8 c4.04 0 7.68 -1.84 10.08 -4.72 l-2.16 -4.32 l1.32 0 l1.64 3.32 c1.44 -2.12 2.28 -4.68 2.28 -7.4 c0 -7.24 -5.92 -13.12 -13.16 -13.12 s-13.12 5.88 -13.12 13.12 s5.88 13.12 13.12 13.12 z M97.215 40.56 c-3.32 0 -6.04 -2.72 -6.04 -6.08 l0 -23.08 l1.16 0 l0 23.08 c0 2.72 2.2 4.88 4.88 4.88 s4.88 -2.16 4.88 -4.88 l0 -23.08 l1.16 0 l0 23.08 c0 3.36 -2.72 6.08 -6.04 6.08 z M108.44999999999999 11.399999999999999 l0 28.6 l-1.16 0 l0 -28.6 l1.16 0 z M113.84499999999998 11.399999999999999 c5.28 0 9.56 4.36 9.56 9.76 c0 5.36 -4.28 9.76 -9.56 9.76 l-0.2 0 l0 9.08 l-1.16 0 l0 -28.6 l1.36 0 z M113.84499999999998 29.759999999999998 c4.64 0 8.4 -3.88 8.4 -8.6 c0 -4.76 -3.76 -8.6 -8.4 -8.6 l-0.2 0 l0 17.2 l0.2 0 z M141.31999999999996 12.559999999999999 c-7.24 0 -13.08 5.88 -13.08 13.12 s5.84 13.12 13.08 13.12 s13.16 -5.88 13.16 -13.12 s-5.92 -13.12 -13.16 -13.12 z M141.31999999999996 11.399999999999999 c7.92 0 14.32 6.4 14.32 14.28 s-6.4 14.32 -14.32 14.32 c-7.88 0 -14.28 -6.44 -14.28 -14.32 s6.4 -14.28 14.28 -14.28 z"></path></g></svg>